<?xml version="1.0" encoding="UTF-8"?>
<svg width="28px" height="29px" viewBox="0 0 28 29" version="1.1" xmlns="http://www.w3.org/2000/svg" xmlns:xlink="http://www.w3.org/1999/xlink">
    <title>Group 7</title>
    <g id="Page-1" stroke="none" stroke-width="1" fill="none" fill-rule="evenodd">
        <g id="Artboard-Copy-54" transform="translate(-23.000000, -318.000000)">
            <g id="MENU" transform="translate(0.000000, 150.000000)">
                <g id="ORDER-HISTORY" transform="translate(0.000000, 146.000000)">
                    <g id="Group-7" transform="translate(23.000000, 22.812500)">
                        <rect id="Rectangle" fill="#D8D8D8" opacity="0" x="0" y="0" width="27.6" height="27.375" rx="5"></rect>
                        <g id="line-icon-02-06" transform="translate(3.450000, 3.421875)" fill="#231F20" fill-rule="nonzero" stroke="#000000" stroke-width="0.2">
                            <path d="M10.35,20.53125 C4.63385284,20.53125 0,15.9351731 0,10.265625 C0,4.59607687 4.63385284,0 10.35,0 C16.0661472,0 20.7,4.59607687 20.7,10.265625 C20.7,12.988238 19.6095567,15.5993399 17.6685552,17.5245181 C15.7275537,19.4496962 13.0949907,20.53125 10.35,20.53125 Z M10.35,0.933238636 C5.15350258,0.933238636 0.940909091,5.11149033 0.940909091,10.265625 C0.940909091,15.4197597 5.15350258,19.5980114 10.35,19.5980114 C15.5464974,19.5980114 19.7590909,15.4197597 19.7590909,10.265625 C19.7590909,7.79052225 18.7677788,5.41679326 17.003232,3.66663132 C15.2386852,1.91646938 12.8454461,0.933238636 10.35,0.933238636 L10.35,0.933238636 Z" id="Shape"></path>
                            <path d="M14.1136364,10.7322443 L10.35,10.7322443 C10.0901751,10.7322443 9.87954545,10.5233317 9.87954545,10.265625 L9.87954545,4.94616477 C9.87954545,4.68845804 10.0901751,4.47954545 10.35,4.47954545 C10.6098249,4.47954545 10.8204545,4.68845804 10.8204545,4.94616477 L10.8204545,9.79900568 L14.1136364,9.79900568 C14.3734612,9.79900568 14.5840909,10.0079183 14.5840909,10.265625 C14.5840909,10.5233317 14.3734612,10.7322443 14.1136364,10.7322443 Z" id="Path"></path>
                        </g>
                    </g>
                </g>
            </g>
        </g>
    </g>
</svg>