<?xml version="1.0" encoding="UTF-8"?>
<svg width="28px" height="29px" viewBox="0 0 28 29" version="1.1" xmlns="http://www.w3.org/2000/svg" xmlns:xlink="http://www.w3.org/1999/xlink">
    <title>Group 3</title>
    <g id="Page-1" stroke="none" stroke-width="1" fill="none" fill-rule="evenodd">
        <g id="Artboard-Copy-54" transform="translate(-23.000000, -245.000000)">
            <g id="MENU" transform="translate(0.000000, 150.000000)">
                <g id="SHIPPING-ADDRESS" transform="translate(0.000000, 73.000000)">
                    <g id="Group-3" transform="translate(23.000000, 22.812500)">
                        <rect id="Rectangle" fill="#D8D8D8" opacity="0" x="0" y="0" width="27.6" height="27.375" rx="5"></rect>
                        <g id="pin-3" transform="translate(5.000000, 2.187500)" fill="#1C1919" fill-rule="nonzero">
                            <path d="M9,0 C4.12928729,0 0,3.71977119 0,9 C0,11.3684942 1.49546779,14.3176813 4.00526402,17.6787168 C4.87685071,18.8459166 5.81942548,19.9888671 6.77711689,21.0693292 L7.16984483,21.5080837 C7.54671397,21.9248916 7.87415346,22.2745621 8.13548395,22.5454139 L8.28619124,22.7003407 C8.67728918,23.0989597 9.31906884,23.1000226 9.71148502,22.7027013 L10.0699285,22.329889 C10.3493255,22.0347759 10.6600461,21.6982117 10.9943309,21.3256234 C11.9490488,20.2615108 12.903777,19.1194172 13.7968167,17.9417212 C14.7841105,16.6397274 15.6356162,15.3724212 16.3114334,14.1642659 C17.3979722,12.2218655 18,10.4945632 18,9 C18,3.71977119 13.8707127,0 9,0 Z M9.00063364,1.20122844 C13.228296,1.20122844 16.7679491,4.3898415 16.7679491,8.96854384 C16.7679491,10.1715703 16.2138057,11.7614856 15.1767144,13.6154888 C14.4820362,14.8573618 13.5927108,16.1809556 12.5549387,17.5495175 C11.6040414,18.8035133 10.5828926,20.0250626 9.56173237,21.1632308 L8.99952403,21.7801758 L8.40855541,21.1287661 C8.33871223,21.0507445 8.26744263,20.9707441 8.19483518,20.8888288 C7.1707589,19.7334716 6.16343097,18.5120026 5.23656316,17.2707721 C2.72499347,13.9073617 1.23331823,10.9656538 1.23331823,8.96854384 C1.23331823,4.3898415 4.77297127,1.20122844 9.00063364,1.20122844 Z" id="Path"></path>
                            <path d="M9,5 C6.790861,5 5,6.790861 5,9 C5,11.209139 6.790861,13 9,13 C11.209139,13 13,11.209139 13,9 C13,6.790861 11.209139,5 9,5 Z M9,6.15871836 C10.5779564,6.15871836 11.8571429,7.43790479 11.8571429,9.01586122 C11.8571429,10.5938176 10.5779564,11.8730041 9,11.8730041 C7.42204357,11.8730041 6.14285714,10.5938176 6.14285714,9.01586122 C6.14285714,7.43790479 7.42204357,6.15871836 9,6.15871836 Z" id="Oval"></path>
                        </g>
                    </g>
                </g>
            </g>
        </g>
    </g>
</svg>