<?xml version="1.0" encoding="UTF-8"?>
<svg width="29px" height="29px" viewBox="0 0 29 29" version="1.1" xmlns="http://www.w3.org/2000/svg" xmlns:xlink="http://www.w3.org/1999/xlink">
    <title>APPBAR - TOP</title>
    <g id="Page-1" stroke="none" stroke-width="1" fill="none" fill-rule="evenodd">
        <g id="Artboard-Copy-54" transform="translate(-368.000000, -121.000000)" fill="#040404">
            <g id="ic-logout" transform="translate(368.000000, 121.000000)">
                <g id="LOGOUT-" opacity="0">
                    <rect id="LOGOUT" x="0" y="0" width="29" height="29" rx="5"></rect>
                </g>
                <g transform="translate(3.625000, 3.625000)" fill-rule="nonzero" id="Path">
                    <path d="M13.9828711,15.9573633 C13.7097814,15.9573633 13.4883984,16.1787462 13.4883984,16.4518359 L13.4883984,20.7610547 L0.988945312,20.7610547 L0.988945312,0.988945313 L13.4883984,0.988945313 L13.4883984,5.46978516 C13.4883984,5.64644323 13.5826444,5.80968202 13.7356348,5.89801106 C13.8886251,5.9863401 14.0771171,5.9863401 14.2301074,5.89801106 C14.3830978,5.80968202 14.4773437,5.64644323 14.4773437,5.46978516 L14.4773437,0.494472656 C14.4773437,0.221382949 14.2559608,0 13.9828711,0 L0.494472656,0 C0.221382949,0 0,0.221382949 0,0.494472656 L0,21.2555273 C0,21.5286171 0.221382949,21.75 0.494472656,21.75 L13.9828711,21.75 C14.2559608,21.75 14.4773437,21.5286171 14.4773437,21.2555273 L14.4773437,16.4518359 C14.4773437,16.1787462 14.2559608,15.9573633 13.9828711,15.9573633 Z"></path>
                    <path d="M21.5308008,10.6133203 L16.5096094,5.52585938 C16.3857666,5.39958831 16.2039664,5.34897837 16.032691,5.39309383 C15.8614157,5.43720928 15.7266861,5.56934794 15.6792535,5.73973445 C15.631821,5.91012097 15.6788916,6.09286957 15.8027344,6.21914063 L19.9930078,10.4671875 L5.71957031,10.4671875 C5.54291224,10.4671875 5.37967345,10.5614334 5.29134441,10.7144238 C5.20301537,10.8674142 5.20301537,11.0559061 5.29134441,11.2088965 C5.37967345,11.3618869 5.54291224,11.4561328 5.71957031,11.4561328 L19.9930078,11.4561328 L15.8027344,15.7007813 C15.6146868,15.8956668 15.6183949,16.2055604 15.8110518,16.3958906 C16.0037088,16.5862207 16.3136246,16.5861633 16.5062109,16.3957617 L21.5274023,11.3083008 C21.7185955,11.116632 21.7201104,10.8068497 21.5308008,10.6133203 Z"></path>
                </g>
            </g>
        </g>
    </g>
</svg>