<?xml version="1.0" encoding="UTF-8"?>
<svg width="28px" height="29px" viewBox="0 0 28 29" version="1.1" xmlns="http://www.w3.org/2000/svg" xmlns:xlink="http://www.w3.org/1999/xlink">
    <title>Group 6</title>
    <g id="Page-1" stroke="none" stroke-width="1" fill="none" fill-rule="evenodd">
        <g id="Artboard-Copy-54" transform="translate(-23.000000, -172.000000)">
            <g id="MENU" transform="translate(0.000000, 150.000000)">
                <g id="Group-6" transform="translate(23.000000, 22.812500)">
                    <rect id="Rectangle" fill="#D8D8D8" opacity="0" x="0" y="0" width="27.6" height="27.375" rx="5"></rect>
                    <g id="line-icon-02-08" transform="translate(4.155682, 4.271122)" fill="#231F20" fill-rule="nonzero" stroke="#000000" stroke-width="0.3">
                        <path d="M18.8181818,20.6152415 L0.470454545,20.6152415 C0.210629675,20.6152415 0,20.4063289 0,20.1486222 C0,15.2584517 4.32818182,11.2828551 9.64431818,11.2828551 C14.9604545,11.2828551 19.2886364,15.2584517 19.2886364,20.1486222 C19.2886364,20.4063289 19.0780067,20.6152415 18.8181818,20.6152415 Z M0.940909091,19.6820028 L18.3289091,19.6820028 C18.1125,15.5197585 14.2735909,12.2160938 9.64431818,12.2160938 C5.01504545,12.2160938 1.22318182,15.5197585 0.959727273,19.6820028 L0.940909091,19.6820028 Z" id="Shape"></path>
                        <path d="M9.64431818,9.33238636 C7.04606947,9.33238636 4.93977273,7.24326052 4.93977273,4.66619318 C4.93977273,2.08912585 7.04606947,0 9.64431818,0 C12.2425669,0 14.3488636,2.08912585 14.3488636,4.66619318 C14.3488636,5.90374456 13.8532076,7.09060905 12.9709342,7.96569002 C12.0886608,8.84077099 10.8920412,9.33238636 9.64431818,9.33238636 L9.64431818,9.33238636 Z M9.64431818,1.01723011 C7.56571921,1.01723011 5.88068182,2.68853079 5.88068182,4.75018466 C5.88068182,6.81183853 7.56571921,8.4831392 9.64431818,8.4831392 C11.7229171,8.4831392 13.4079545,6.81183853 13.4079545,4.75018466 C13.4079545,3.76014356 13.0114297,2.81065196 12.305611,2.11058719 C11.5997922,1.41052241 10.6424966,1.01723011 9.64431818,1.01723011 Z" id="Shape"></path>
                    </g>
                </g>
            </g>
        </g>
    </g>
</svg>