<?xml version="1.0" encoding="UTF-8"?>
<svg width="276px" height="337px" viewBox="0 0 276 337" version="1.1" xmlns="http://www.w3.org/2000/svg" xmlns:xlink="http://www.w3.org/1999/xlink">
    <title>ILUSTRATION 3</title>
    <g id="Page-1" stroke="none" stroke-width="1" fill="none" fill-rule="evenodd">
        <g id="Artboard-Copy-6" transform="translate(-74.000000, -52.000000)" fill-rule="nonzero">
            <g id="ILUSTRATION-3" transform="translate(74.000000, 52.000000)">
                <path d="M85.481558,284 L80.948162,299.816747 C72.9616685,298.875751 61.1671224,309.234719 64.6163616,318 L100,304.713932 L93.826865,285.693793 L85.481558,284 Z" id="Path" fill="#061432"></path>
                <path d="M219,248.487983 L224.368621,260.126446 C221.686213,270.624978 224.905103,280.186852 236,277.560227 L233.804611,244.398578 L226.335721,244 L219,248.487983 Z" id="Path" fill="#061432"></path>
                <path d="M121.977447,153.04945 C107.232324,190.395222 93.8561729,234.748337 83,286.986619 C86.6480412,290.42159 91.3400187,292.146709 97.1982987,291.990227 C109.599344,253.022385 126.000234,219.680262 147.590214,193.620279 C166.197518,218.78717 192.089433,238.576422 221.369362,255.865778 C225.250663,253.644496 228.481895,250.522489 230,245.026535 C199.374044,227.798245 186.56766,189.45633 175.088185,149 L121.977447,153.04945 Z" id="Path" fill="#2961EB"></path>
                <polygon id="Path" fill="#F27553" points="120.681766 52.5284334 112.557913 42 98 65.5773329 98 69.6797132 114.745413 80 133 64.7750224"></polygon>
                <ellipse id="Oval" fill="#FF9375" transform="translate(99.409447, 47.094864) rotate(-9.040000) translate(-99.409447, -47.094864) " cx="99.4094475" cy="47.0948637" rx="14.725203" ry="22.2238161"></ellipse>
                <polygon id="Path" fill="#061432" points="101 33 105.201813 47.6804452 119 51 118.873112 43.4916534"></polygon>
                <path d="M119.892704,49 C116.23632,43.3822175 108.251115,38.8224052 101.973749,35.168309 C96.6706559,36.92899 91.3904864,37.2803454 86.144703,35.168309 L84.7157714,43.5930308 C75.7677562,43.495432 71.1332804,39.5173081 72.1342966,33.8839098 C73.471532,26.3727121 80.9218435,31.3541509 85.4684439,28.9258947 C89.0866209,23.6789874 99.6049325,17.2569914 109.920748,21.2429233 C120.775279,25.7051369 124.890144,36.4956517 119.892704,49 Z" id="Path" fill="#FF1600"></path>
                <path d="M65.7723688,80.2572353 L57.0791979,82.6120169 L64.6247935,50.0613048 C68.3515347,49.5949733 71.3682378,48.134315 73.5674373,45.5714185 L78.8217203,36.8537166 C79.1157558,36.3666418 79.1835051,35.7749811 79.0072343,35.2336048 C78.8309635,34.6922285 78.4282214,34.2550334 77.9044277,34.0364575 L77.9044277,34.0364575 C77.1664629,33.7250986 76.3121723,33.9740964 75.8549119,34.6338243 L72.7269055,39.1160027 C73.4407818,31.6084503 65.012436,28.0011254 58.990544,34.0480194 C54.6190113,38.4454102 56.2386661,45.101233 54.5652787,49.2365532 C44.517278,67.9129385 32.2086691,88.2388271 35.56312,96.9372592 C39.7542647,104.178887 52.8880532,107 73.9435657,107 L80,102.267313 L80,86.8513945 L65.7723688,80.2572353 Z" id="Path" fill="#FF9375"></path>
                <path d="M66,79.8362428 C70.9422065,88.1779077 73.987716,96.9316951 74.1997452,106.29985 L93.4597014,106.29985 C104.435101,128.840662 116.501486,143.287846 118.772126,158.879814 C134.867065,162.52023 159.728446,156.903153 175.098631,147.588421 L162.484825,82.8470267 L184,70.658885 L184,47 C159.994446,47 135.194747,57.3679339 120.900127,52.0370529 C123.236303,60.4855644 122.665752,67.426776 117.334183,70.9985044 C113.120585,73.5437426 103.64481,72.0173629 99.1112418,69.3461984 L66,79.8362428 Z" id="Path" fill="#FF1600"></path>
                <polygon id="Path" fill="#FFBD3C" points="147 87.4016508 226.492828 66 241 129.768496 181.965904 143 158.698959 141.127834"></polygon>
                <path d="M184,46 L184,70.0069948 L199.28522,62.8513615 C204.471685,61.6355234 213.374736,65.2830377 220.952611,69.9876343 C220.396646,77.0038721 220.156743,85.5612041 220.952611,87.1836123 C221.748478,88.8060205 223.618195,89.0770672 223.618195,89.0770672 C223.644851,97.0380964 225.476488,104.755184 228.667572,108 L231.991937,108 C234.120596,105.847115 237.974269,75.0174869 234.783184,70.2857857 C229.033138,61.5464652 216.569629,48.7956533 208.595725,47.575943 L184,46 Z" id="Path" fill="#FF9375"></path>
                <ellipse id="Oval" fill="#FF9375" cx="111" cy="45" rx="4" ry="7"></ellipse>
                <path d="M117.226089,73 C117.165764,72.9990567 117.108058,72.9764147 117.064827,72.9365928 C116.978391,72.8527426 116.978391,72.7189619 117.064827,72.6351117 C120.824978,69.0768906 125.131845,66.5049965 128.593071,64.4467368 C131.916635,62.4629168 134.544021,60.8959596 134.544021,59.6081515 C134.634485,57.0437014 132.789808,55.6777315 128.907728,55.4283583 C128.847513,55.4255012 128.791051,55.399814 128.751088,55.3570946 C128.711124,55.3143752 128.691028,55.2582246 128.695335,55.201317 C128.705788,55.0829305 128.813838,54.9938764 128.939194,55.0003296 C133.057267,55.2645908 135.098604,56.8203821 134.99634,59.6155955 C134.99634,61.1267229 132.41222,62.6713482 128.83693,64.8077697 C125.39537,66.8623074 121.108169,69.4230356 117.38735,72.9440368 C117.343332,72.9818115 117.285475,73.001842 117.226089,73 Z" id="Path" fill="#061432"></path>
                <path d="M103.89142,83 C103.536842,83.0021454 103.184285,82.9418274 102.847498,82.8213401 C102.826857,82.8136885 102.807489,82.8024681 102.79014,82.7881118 C101.199402,81.5752819 100.675529,78.1153937 101.191754,72.2173849 C101.196566,72.1537032 101.224871,72.0948379 101.270238,72.0541641 C101.315605,72.0134902 101.374182,71.9944615 101.432659,72.0014015 C101.553839,72.014535 101.642601,72.1313449 101.631501,72.2630737 C101.142043,77.8620285 101.608558,81.2637673 103.015749,82.3769126 C105.531869,83.2491534 109.539306,80.1963108 114.617432,73.5382066 C114.697881,73.4462481 114.830199,73.4378113 114.920001,73.5189145 C115.009803,73.6000177 115.026314,73.7428683 114.957758,73.8455676 C111.657741,78.1527754 107.218205,83 103.89142,83 Z" id="Path" fill="#061432"></path>
                <path d="M120.809589,91 C120.722719,90.9986856 120.646963,90.9330069 120.623411,90.8385868 C119.187391,85.0933352 118.307866,79.1890784 118.000286,73.2295286 C117.99459,73.1106073 118.074578,73.0085867 118.179816,73.000547 C118.230648,72.9964369 118.280803,73.0156166 118.318962,73.0537569 C118.357121,73.0918973 118.380065,73.1457833 118.382617,73.203252 C118.688728,79.1323086 119.563792,85.0063506 120.992443,90.7222191 C121.006696,90.7774875 121.000625,90.8369091 120.975601,90.8870614 C120.950576,90.9372137 120.90871,90.9738658 120.859459,90.9887386 L120.809589,91 Z" id="Path" fill="#061432"></path>
                <path d="M104.788658,74.9997027 C104.755314,75.0018284 104.722104,74.9925295 104.691909,74.9726129 L101.139252,72.6049608 C101.062722,72.560996 101.009668,72.4616643 101.001186,72.346464 C100.992704,72.2312636 101.030169,72.1188691 101.098684,72.0539729 C101.167198,71.9890767 101.255656,71.9821988 101.328882,72.0360741 L104.873798,74.4091442 C104.984423,74.484597 105.03103,74.6706776 104.978288,74.8263277 C104.941449,74.9270291 104.86933,74.9929655 104.788658,74.9997027 Z" id="Path" fill="#061432"></path>
                <path d="M124.373079,65 C124.243538,64.9981932 124.124342,64.9565047 124.056506,64.8892796 C123.98867,64.8220545 123.981454,64.738468 124.037339,64.6672821 C125.954914,62.3894447 126.645903,59.8017606 126.012281,57.2713229 C125.993201,57.2106047 126.015339,57.1477699 126.073641,57.0971607 C126.131944,57.0465515 126.221435,57.0124873 126.321688,57.0027433 C126.530107,56.9833547 126.725868,57.0687547 126.762759,57.1951585 C127.420683,59.8218671 126.701975,62.5080255 124.708819,64.8717232 C124.644971,64.9492742 124.515529,64.9987301 124.373079,65 Z" id="Path" fill="#061432"></path>
                <path d="M146.75241,190 C146.666882,190.000603 146.587149,189.962026 146.542137,189.898165 C141.782894,183.200805 138.228001,175.89921 136.00272,168.250658 C135.983926,168.139431 136.064318,168.033834 136.188554,168.006562 C136.312789,167.97929 136.440317,168.039245 136.483345,168.145153 C138.697615,175.749308 142.23214,183.00875 146.962683,189.668313 C146.99756,189.717743 147.008565,189.77734 146.993263,189.833914 C146.977961,189.890489 146.937613,189.939376 146.881149,189.969758 C146.842522,189.990655 146.797758,190.001137 146.75241,190 L146.75241,190 Z" id="Path" fill="#061432"></path>
                <path d="M176.852733,88.99166 C176.811303,88.9903967 176.770632,88.9804425 176.733468,88.9624698 C176.673516,88.9295263 176.630298,88.8736153 176.614203,88.808179 L174.007409,78.8001286 C173.974874,78.672527 174.052451,78.5428598 174.182047,78.5082272 C174.31472,78.4764501 174.449027,78.5542309 174.48447,78.683368 L177.04015,88.4578973 L186.453573,85.3303815 L184.387731,76.293946 C184.367948,76.2105169 184.395132,76.1230929 184.459042,76.0646056 C184.522952,76.0061183 184.613879,75.9854535 184.697572,76.0103953 C184.781265,76.0353372 184.845009,76.1020964 184.864791,76.1855255 L186.994525,85.434632 C187.020645,85.5544556 186.951115,85.6744727 186.832665,85.7140235 L176.95922,89 L176.852733,88.99166 Z" id="Path" fill="#061432"></path>
                <path d="M163.217297,139 C163.105906,138.996466 163.01409,138.917499 163.001462,138.81437 C162.988834,138.71124 163.059202,138.615049 163.166879,138.58825 L224.730864,125.004112 C224.850223,124.981861 224.966932,125.052073 224.994227,125.162551 C225.021522,125.273028 224.949498,125.383682 224.831699,125.41225 L163.267715,138.992776 L163.217297,139 Z" id="Path" fill="#061432"></path>
                <path d="M226.771326,123 C226.663212,122.999023 226.569989,122.926155 226.546171,122.824009 L216.01131,70.2907444 C215.983822,70.2091557 216.007374,70.1195296 216.071788,70.0605958 C216.136201,70.001662 216.229927,69.9839882 216.312464,70.0152118 C216.395,70.0464353 216.451547,70.1209573 216.457669,70.2065749 L226.99648,122.73984 C227.018177,122.858972 226.937359,122.972985 226.814777,122.996174 L226.771326,123 Z" id="Path" fill="#061432"></path>
                <path d="M237.786197,128.987882 C237.764985,128.992056 237.743239,128.992056 237.722026,128.987882 L227.152784,125.453393 C227.03874,125.414675 226.974862,125.285157 227.009344,125.162555 C227.047154,125.041984 227.16677,124.974427 227.281124,125.009057 L237.850367,128.543546 C237.951281,128.579592 238.013373,128.688053 237.997546,128.800633 C237.981719,128.913213 237.892555,128.997323 237.786197,129 L237.786197,128.987882 Z" id="Path" fill="#061432"></path>
                <path d="M102.775325,34.9999035 C102.734909,35.0011877 102.695063,34.9896334 102.66099,34.9667491 C97.590611,31.766285 92.0070735,29.5655195 86.1848725,28.4726456 C86.0625226,28.4475265 85.9818571,28.3240249 86.003513,28.1949782 C86.0140321,28.1326261 86.0479267,28.0773242 86.0975911,28.0414819 C86.1472555,28.0056396 86.2085308,27.9922583 86.2676671,28.0043408 C92.1436638,29.1033074 97.7785621,31.3239673 102.893603,34.5564644 C102.978971,34.6132583 103.018766,34.7222081 102.991491,34.8244625 C102.964217,34.9267169 102.876339,34.9980393 102.775325,34.9999035 L102.775325,34.9999035 Z" id="Path" fill="#061432"></path>
                <path d="M86.7742392,36 C82.7827795,35.975707 78.9499592,34.0030263 76.0622789,30.4867551 C75.9777688,30.373525 75.9794753,30.1949437 76.0661239,30.0843766 C76.1527725,29.9738096 76.2927223,29.9716321 76.381458,30.0794703 C79.1820893,33.4930049 82.9013295,35.4073598 86.7742392,35.428808 C86.8337539,35.4274754 86.8911921,35.456714 86.9336462,35.509953 C86.9761002,35.563192 87,35.6359659 87,35.7119205 C87,35.8710224 86.8989234,36 86.7742392,36 Z" id="Path" fill="#061432"></path>
                <path d="M87.8350448,51.9997512 C87.2531911,51.9951064 86.6829455,51.8104173 86.1831587,51.4647443 C85.4731951,51.0261285 85.0212912,50.1786023 85,49.2457812 C85,46.9566533 86.3835019,46.0927487 87.846385,45.1718351 L88.0769686,45.0315054 C88.1274884,44.9989141 88.1871777,44.9912396 88.2426229,45.0102066 C88.2980681,45.0291736 88.3446186,45.0731911 88.3718133,45.1323674 C88.3999065,45.1909761 88.4065218,45.2602225 88.3901726,45.3245453 C88.3738233,45.3888681 88.3358809,45.442872 88.2848719,45.474421 L88.0542883,45.619136 C86.6481061,46.4961965 85.4384869,47.2592391 85.4384869,49.2457812 C85.4647387,49.9991486 85.8349184,50.6792518 86.4099623,51.0305993 C87.0881739,51.5300395 87.9318327,51.6213887 88.6779982,51.2761763 C88.7285179,51.2435849 88.7882072,51.2359104 88.8436524,51.2548774 C88.8990976,51.2738444 88.9456481,51.3178619 88.9728428,51.3770382 C89.000936,51.4356469 89.0075513,51.5048933 88.9912021,51.5692161 C88.9748528,51.6335389 88.9369104,51.6875428 88.8859014,51.7190918 C88.5601592,51.9092946 88.1996857,52.0055687 87.8350448,51.9997512 Z" id="Path" fill="#061432"></path>
                <path d="M89.2389408,59.9919234 C89.1230238,59.9900713 89.0243856,59.9091076 89.0027867,59.7980845 C88.9828943,59.6711229 89.0716062,59.5522278 89.2016533,59.5315561 C94.107029,58.7238943 97.7777747,56.0909166 99.5385726,52.1414501 C99.563149,52.0841111 99.6104661,52.0388936 99.6697669,52.0160772 C99.7290678,51.9932607 99.7953137,51.9947841 99.8534447,52.0203009 C99.9130647,52.0433239 99.9602494,52.089373 99.9837952,52.1475144 C100.007341,52.2056558 100.005148,52.2707033 99.9777363,52.3272124 C98.1506496,56.4260963 94.3514692,59.1479167 89.2803713,60 L89.2389408,59.9919234 Z" id="Path" fill="#061432"></path>
                <path d="M90.2273717,44 C90.1605953,43.999562 90.0971369,43.9585928 90.0529967,43.8874221 C89.9726971,43.7482898 89.984997,43.5436403 90.0807382,43.4258526 C92.3277981,40.7577559 94.6105256,40.2905576 96.8655117,42.0242575 C96.9431918,42.0730787 96.9950219,42.1796684 96.9996614,42.3001393 C97.004301,42.4206101 96.9609655,42.5345935 96.887498,42.5951576 C96.8140306,42.6557218 96.7228526,42.6526268 96.651506,42.5871471 C94.5431535,40.971654 92.4902839,41.405079 90.3740053,43.9211955 C90.3335052,43.9719267 90.2813719,43.9999445 90.2273717,44 Z" id="Path" fill="#061432"></path>
                <path d="M87.2076095,39.9999593 C87.152751,39.9986108 87.1004157,39.9679329 87.0616389,39.9143944 C87.0221928,39.8605135 87,39.7871196 87,39.7105484 C87,39.6339773 87.0221928,39.5605834 87.0616389,39.5067025 C88.919115,36.8944546 91.546586,36.320666 94.8674175,37.8004365 C94.97075,37.857876 95.0241094,38.0159635 94.9894568,38.1620019 C94.9548043,38.3080403 94.8440044,38.3920281 94.7360439,38.3540922 C91.5830787,36.9447869 89.1015782,37.4732764 87.3608787,39.9143944 C87.3203137,39.9703987 87.2649975,40.0012799 87.2076095,39.9999593 Z" id="Path" fill="#061432"></path>
                <path d="M132.217572,84 C132.116353,83.997145 132.029617,83.9244558 132.006123,83.8227914 C131.982629,83.721127 132.028239,83.6158528 132.117313,83.5661488 L144.722984,77.0066863 C144.823162,76.981288 144.927174,77.0299046 144.974765,77.1243717 C145.022356,77.2188389 145.001179,77.3346492 144.923503,77.404712 L132.317831,83.9761152 C132.286664,83.9920103 132.252336,84.0001872 132.217572,84 Z" id="Path" fill="#061432"></path>
                <path d="M100.324999,237 L100.246393,237 C100.162411,236.986686 100.090009,236.951198 100.045609,236.901587 C100.001209,236.851976 99.9885754,236.792446 100.010573,236.736501 L102.363154,230.167848 C102.381843,230.111682 102.433401,230.062903 102.50625,230.032467 C102.579098,230.002031 102.667129,229.992489 102.750572,230.005984 C102.924023,230.035657 103.030938,230.152344 102.992006,230.269483 L100.639426,236.838136 C100.601315,236.933571 100.472362,237 100.324999,237 Z" id="Path" fill="#061432"></path>
                <path d="M103.37128,237 L103.281161,237 C103.082705,236.963774 102.962077,236.81989 103.010805,236.677523 L105.257335,230.227989 C105.278191,230.127387 105.377043,230.043981 105.512328,230.012841 C105.647613,229.9817 105.795869,230.008226 105.894762,230.081265 C105.993655,230.154304 106.026034,230.261189 105.978285,230.35698 L103.731755,236.806514 C103.683809,236.920566 103.537694,236.998994 103.37128,237 L103.37128,237 Z" id="Path" fill="#061432"></path>
                <path d="M184.736791,220 C184.662284,219.999109 184.591924,219.965062 184.544395,219.90688 L179.047998,213.407646 C178.970638,213.299008 178.988531,213.148348 179.089115,213.061434 C179.189699,212.974519 179.339254,212.980487 179.432789,213.075148 L184.937932,219.574382 C184.982154,219.626048 185.004247,219.69345 184.999323,219.761675 C184.994399,219.8299 184.962865,219.893324 184.911696,219.937913 C184.862395,219.978789 184.800473,220.000763 184.736791,220 L184.736791,220 Z" id="Path" fill="#061432"></path>
                <path d="M184.743663,215.98086 C184.676054,215.981525 184.611598,215.955777 184.567713,215.910573 L182.056434,213.334548 C182.016218,213.294176 181.996113,213.241313 182.000623,213.187802 C182.005133,213.134292 182.033882,213.084609 182.080427,213.049885 C182.12703,213.014343 182.187827,212.996587 182.249366,213.000544 C182.310905,213.004501 182.368113,213.029846 182.408333,213.070971 L184.919612,215.646996 C184.996448,215.704352 185.021286,215.799254 184.980685,215.880349 C184.940084,215.961444 184.84369,216.009467 184.743663,215.998432 L184.743663,215.98086 Z" id="Path" fill="#061432"></path>
                <path d="M226.200809,90 C226.137425,90.0016884 226.077428,89.9654844 226.040556,89.9032386 C226.008588,89.8525435 225.994661,89.7885733 226.001852,89.7254611 C226.009042,89.6623488 226.036759,89.605289 226.078878,89.5668881 C227.005557,88.7260117 227.820756,84.6813964 228.601117,77.2102099 C228.615548,77.077855 228.71615,76.9846779 228.82582,77.002093 C228.935489,77.0195082 229.012696,77.1409208 228.998266,77.2732757 C228.207453,84.9841119 227.353933,89.0119097 226.322741,89.9536912 C226.287314,89.9846235 226.244529,90.0008517 226.200809,90 L226.200809,90 Z" id="Path" fill="#F27553"></path>
                <path d="M227.222723,107 C227.173977,107.000686 227.126273,106.986092 227.086774,106.958274 C226.990419,106.883881 226.971562,106.748716 227.044047,106.652004 C228.520064,104.761449 229.553276,98.0083887 229.553276,90.2193043 C229.553276,90.0981859 229.654141,90 229.778563,90 C229.837962,90 229.894873,90.0232163 229.936508,90.0644562 C229.978143,90.1056961 230.001008,90.1614917 229.999966,90.2193043 C229.999966,98.2201308 228.955101,104.931599 227.401399,106.916681 C227.359439,106.971233 227.292685,107.002311 227.222723,107 Z" id="Path" fill="#F27553"></path>
                <path d="M230.203401,107 C230.154388,107.001534 230.106696,106.982884 230.070396,106.947888 C230.029656,106.91118 230.004493,106.858658 230.000546,106.80209 C229.996598,106.745521 230.014196,106.689637 230.049396,106.646958 C231.498446,104.845089 232.082966,99.2462918 232.597484,93.1756652 C232.616892,93.0661279 232.711795,92.9903779 232.816323,93.0009907 C232.920851,93.0116034 233.000504,93.105076 233,93.2165323 C232.47848,99.3577476 231.883459,105.027133 230.357406,106.925597 C230.318155,106.972187 230.26228,106.999146 230.203401,107 L230.203401,107 Z" id="Path" fill="#F27553"></path>
                <path d="M61.8736217,41 C61.6173028,40.9954251 61.3819802,40.8419884 61.2538374,40.5958838 C60.6778026,39.5855932 61.1152974,36.6597917 62.2309091,34.0774891 C62.2945574,33.9992 62.3975188,33.977624 62.4825584,34.0247548 C62.5675979,34.0718857 62.6138027,34.1761331 62.595488,34.2795472 C61.4616474,36.9022615 61.1590469,39.581552 61.5965417,40.3412906 C61.6447193,40.453305 61.7470907,40.5242257 61.8590385,40.5231429 C62.5408012,40.5231429 63.2808965,38.7854431 63.5871428,37.6943293 C63.623689,37.5716869 63.7416907,37.5036 63.8532855,37.5407651 C63.962107,37.5812439 64.0230813,37.7093029 63.9918255,37.8317288 C63.9152639,38.1590629 63.0876696,41 61.8736217,41 Z" id="Path" fill="#F27553"></path>
                <path d="M62.8298516,41 C62.7480419,41 62.6664618,40.9918493 62.5864306,40.9758769 C62.5415353,40.9640728 62.5004505,40.9419703 62.4668553,40.9115486 C61.6127466,40.1074454 61.9202257,37.8318333 63.4747037,33.5540041 C63.4940808,33.4948397 63.5384815,33.4457983 63.5974627,33.4184147 C63.6564438,33.391031 63.7247999,33.3877218 63.7864534,33.4092655 C63.9142533,33.4511371 63.9827067,33.5818187 63.940193,33.7027632 C62.5522662,37.5302945 62.1551057,39.8260093 62.7657934,40.5376406 C63.5729262,40.6220715 65.0291816,39.3556089 67.5231792,33.1519524 C67.5461824,33.0936825 67.5929464,33.0464716 67.6530853,33.0208048 C67.7132243,32.995138 67.7817595,32.9931401 67.84347,33.0152549 C67.9690114,33.0636594 68.0313079,33.196953 67.9843979,33.3167936 C65.8832904,38.5354236 64.2348605,41 62.8298516,41 Z" id="Path" fill="#F27553"></path>
                <path d="M66.3002387,40.9958409 L66.266217,40.9958409 C65.8264297,40.9079757 65.4639366,40.6427539 65.2941704,40.2846329 C64.7303833,39.2614915 65.0414382,37.452278 65.682989,36.404182 C65.7160735,36.3104854 65.8120403,36.2431847 65.9258978,36.2338323 C66.0397553,36.2244798 66.1489302,36.2749297 66.2022387,36.3615297 C66.2555472,36.4481298 66.2424203,36.5537109 66.1690124,36.628774 C65.5274616,37.6685518 65.3524932,39.282287 65.7899142,40.0808364 C65.8834161,40.287168 66.0793399,40.4472076 66.3245398,40.5175431 C67.2965865,40.4260426 68.808119,39.2323777 70.4460177,34.1748983 C70.4884723,34.0479857 70.6422508,33.9738478 70.7910942,34.0085339 C70.9413656,34.0430401 71.0305529,34.1752064 70.9903638,34.3038308 C69.5614552,38.7000114 68.0353419,40.887704 66.3245398,41 L66.3002387,40.9958409 Z" id="Path" fill="#F27553"></path>
                <path d="M70.0762776,41 L70.0047829,41 C68.6915376,40.6333675 69.0038566,38.2722544 69.1092173,37.4949936 C69.1174377,37.4209368 69.1486332,37.3544787 69.1955481,37.3110762 C69.242463,37.2676738 69.3010084,37.25111 69.3575674,37.2652372 C69.4756811,37.2902606 69.5562527,37.4341848 69.5381857,37.5878738 C69.1920007,40.198297 69.8542676,40.3840574 70.0725147,40.4476071 C70.9078742,40.5453757 72.0743671,36.0920133 72.5785931,34.1904129 C72.6177816,34.0441221 72.7400891,33.9657643 72.8532834,34.0144293 C72.9663989,34.0674496 73.0264574,34.2278305 72.9887471,34.3761733 C71.8786974,38.5557835 71.039575,41 70.0762776,41 Z" id="Path" fill="#F27553"></path>
                <path d="M72.2339846,41 C72.1109678,40.9971466 72.0103442,40.9169867 72.0007425,40.8141918 C71.9911408,40.711397 72.0756554,40.6190974 72.1966447,40.6002443 C73.6943888,40.4021045 74.789692,39.5921647 75.5406385,38.1217589 C75.5652494,38.072402 75.612633,38.0334792 75.6720171,38.0138391 C75.7314013,37.9941989 75.7977403,37.9955102 75.855953,38.0174748 C75.9769972,38.0619524 76.0325676,38.1799035 75.9804193,38.2816612 C75.1713885,39.8633033 73.9059815,40.7775273 72.2713245,40.9965239 L72.2339846,41 Z" id="Path" fill="#F27553"></path>
                <circle id="Oval" fill="#061432" cx="120.5" cy="78.5" r="1.5"></circle>
                <circle id="Oval" fill="#061432" cx="123.5" cy="84.5" r="1.5"></circle>
                <polygon id="Path" fill="#061432" points="160 119.386063 162.061892 131 182 125.952946 180.109284 114"></polygon>
            </g>
        </g>
    </g>
</svg>