<?xml version="1.0" encoding="UTF-8"?>
<svg width="276px" height="337px" viewBox="0 0 276 337" version="1.1" xmlns="http://www.w3.org/2000/svg" xmlns:xlink="http://www.w3.org/1999/xlink">
    <title>ILUSTRATION</title>
    <g id="Page-1" stroke="none" stroke-width="1" fill="none" fill-rule="evenodd">
        <g id="Artboard-Copy-4" transform="translate(-74.000000, -60.000000)">
            <g id="ILUSTRATION" transform="translate(74.000000, 60.000000)">
                <rect id="Rectangle" fill="#FFFFFF" fill-rule="nonzero" x="67" y="0" width="209" height="331" rx="15"></rect>
                <rect id="Rectangle" fill="#F2F2F2" fill-rule="nonzero" x="80" y="94" width="88" height="88" rx="15"></rect>
                <rect id="Rectangle" fill="#F2F2F2" fill-rule="nonzero" x="180" y="94" width="88" height="88" rx="15"></rect>
                <rect id="Rectangle" fill="#F2F2F2" fill-rule="nonzero" x="80" y="194" width="88" height="88" rx="15"></rect>
                <rect id="Rectangle" fill="#F2F2F2" fill-rule="nonzero" x="180" y="194" width="88" height="88" rx="15"></rect>
                <rect id="Rectangle" fill="#F2F2F2" fill-rule="nonzero" x="80" y="44" width="184" height="31" rx="15.5"></rect>
                <text id="Search" font-family="Lato-Regular, Lato" font-size="10" font-weight="normal" letter-spacing="0.357142833" fill="#414B5A">
                    <tspan x="97.7110715" y="65">Search</tspan>
                </text>
                <path d="M247.690436,55.1067097 C246.086368,55.1227684 244.690067,56.207213 244.277166,57.7576437 C243.864264,59.3080744 244.536211,60.9435587 245.919745,61.7555986 C247.303278,62.5676386 249.058473,62.3567205 250.210331,61.2400075 L250.210331,61.2400075 L250.210331,61.2400075 C251.258886,60.2234468 251.58258,58.6705578 251.027527,57.3195882 C250.472475,55.9686186 249.150644,55.0920912 247.690436,55.1067097 L247.690436,55.1067097 Z M247.690436,54.0035729 C249.485931,54.0018545 251.124326,55.027122 251.908082,56.6428727 C252.691838,58.2586235 252.482946,60.1803434 251.37034,61.5898697 L253.868819,64.0888851 C254.055266,64.308935 254.041445,64.6353262 253.837063,64.8388189 C253.63268,65.0423116 253.306299,65.054642 253.087152,64.8671499 L250.588673,62.3681345 C248.97625,63.639927 246.723854,63.7136647 245.031737,62.5500545 C243.33962,61.3864443 242.601943,59.2565378 243.2118,57.2953153 C243.821656,55.3340927 245.636984,53.9984019 247.690436,54.0000014 L247.690436,54.0035729 Z" id="Shape" fill="#061432" fill-rule="nonzero"></path>
                <polygon id="Path" fill="#154A9D" fill-rule="nonzero" points="115.398018 109 131.447577 109 132 118.298498 113 120"></polygon>
                <path d="M93,123.665022 L100.774021,133.000513 L104.151197,131.00032 L104.151197,167 L142.005467,167 L142.005467,131.333056 L145.045309,132.845488 L154,124.844719 L142.848803,112.499487 L130.68177,108 C130.68177,119.343245 115.980896,118.666432 115.980896,108 L102.970527,112.15919 L93,123.665022 Z" id="Path" fill="#2961EB" fill-rule="nonzero"></path>
                <polygon id="Path" fill="#FFBD3C" fill-rule="nonzero" points="99.998804 210 147.99858 210 150 268 126.333682 268 124.999402 246.534341 122.834056 268 99 268"></polygon>
                <path d="M101.142952,231 L101,230.637904 C104.621443,229.305085 106.400397,224.651772 106.602912,216 L107,216 C106.793514,224.836672 104.935142,229.601695 101.142952,231 Z" id="Path" fill="#241F20" fill-rule="nonzero"></path>
                <path d="M147.739263,231 C144.145435,228.486972 142.585357,223.77707 143.093794,217 L143.528357,217.028373 C143.02861,223.659525 144.523504,228.259988 148,230.691951 L147.739263,231 Z" id="Path" fill="#241F20" fill-rule="nonzero"></path>
                <rect id="Rectangle" fill="#241F20" fill-rule="nonzero" x="102" y="216" width="45" height="1"></rect>
                <rect id="Rectangle" fill="#241F20" fill-rule="nonzero" x="124" y="219" width="1" height="26"></rect>
                <path d="M124,239 L124,238.619265 C125.80303,238.619265 127.621212,237.187702 127.621212,233.981915 L127.621212,219 L128,219 L128,233.978108 C128,237.450409 125.988636,239 124,239 Z" id="Path" fill="#241F20" fill-rule="nonzero"></path>
                <path d="M196,133 C198.269601,139.395371 199.272008,145.424301 199.272008,153 L203.879298,153 C203.240028,145.771456 204.30674,139.572806 207,134.36162 L196,133 Z" id="Path" fill="#E59D38" fill-rule="nonzero"></path>
                <path d="M199.236157,120 C195.336298,124.368052 193.171801,131.157403 197.015195,136.145726 C205.650598,136.676319 215.531998,141.862681 226.753504,152 L257,151.891639 C255.663658,147.893508 253.988526,142.774404 245.853781,142.352172 C242.695497,142.191499 237.504468,145.681457 231.925712,143.047174 C223.546284,139.14993 209.749967,130.454928 199.236157,120 Z" id="Path" fill="#FFBD3C" fill-rule="nonzero"></path>
                <path d="M211.283977,209 L237.978187,209 L237.978187,213.955224 C242.396198,221.182836 241.017231,244.794776 239.759827,268 L235.011319,268 L234.251558,248.186567 L232.025458,268 L210.839517,268 C208.203145,250.518657 205.855483,221.809701 211.302971,214.100746 L211.283977,209 Z" id="Path" fill="#2961EB" fill-rule="nonzero"></path>
                <rect id="Rectangle" fill="#241F20" fill-rule="nonzero" x="213" y="214" width="23" height="1"></rect>
                <path d="M58.6192703,314.923289 L56,337 L84,337 C83.2740879,331.07151 80.5724977,326.279376 67.4237605,327.45685 L64.1459308,314 L58.6192703,314.923289 Z" id="Path" fill="#061432" fill-rule="nonzero"></path>
                <path d="M43.3800294,314.923289 L46,337 L18,337 C18.7261061,331.07151 21.4284187,326.279376 34.5769282,327.45685 L37.8556343,314 L43.3800294,314.923289 Z" id="Path" fill="#061432" fill-rule="nonzero"></path>
                <path d="M19.9224278,187 L66.0649291,187 C78.0631099,204.66005 71.739948,274.474026 67.4742631,315.87196 L54.8580856,315.87196 C54.6282209,294.269429 49.6917835,262.107087 43.2857196,226.541761 C40.9267808,260.27355 41.5033265,290.953218 46.5302025,317 L33.6766238,317 C17.8159633,260.831911 6.56766878,209.915433 19.9224278,187 Z" id="Path" fill="#FFBD3C" fill-rule="nonzero"></path>
                <path d="M47.4876712,107.349853 C48.5214612,112.00254 50.6255708,115.043017 53,116.006015 C52.9561644,119.273716 49.6940639,121.643341 45.456621,123.74246 C36.8392694,124.716278 30.7351598,122.779462 25,120.431478 L33.6063927,107 L47.4876712,107.349853 Z" id="Path" fill="#F27553" fill-rule="nonzero"></path>
                <path d="M54.6898627,116 C49.8733073,125.318718 31.5627814,124.368058 24.2294329,119.043614 C9.76072869,128.553966 -11.4245003,166.783256 7.47619645,180.667394 C12.8676925,183.985308 17.5167156,183.297677 21.5641453,179.333464 L20.4218791,187.134133 C32.7926212,191.44404 49.0813361,190.43326 67.0606048,187.134133 L65.1339826,175.910339 C69.482209,181.095754 75.0602752,181.031876 81.5064637,177.244268 C97.6695293,165.832596 81.7615698,128.01288 54.6898627,116 Z" id="Path" fill="#2961EB" fill-rule="nonzero"></path>
                <ellipse id="Oval" fill="#FF9375" fill-rule="nonzero" cx="41.5" cy="95.5" rx="13.5" ry="16.5"></ellipse>
                <rect id="Rectangle" fill="#FFBD3C" fill-rule="nonzero" x="40" y="127" width="14" height="21" rx="4.25"></rect>
                <path d="M30,149.156786 L34.9193342,156 C38.2796408,153.142572 41.9606164,150.733498 45.8790013,148.82727 L47,142.696731 C45.5996586,141.217739 42.392659,141.07597 38.9026889,141.777151 C40.4046095,139.983968 45.6286812,139.014577 45.6286812,137.631374 C45.5125907,136.481898 42.9767392,136.903373 37.4515578,138.884303 C34.7742211,140.282832 32.862356,144.685325 30,149.156786 Z" id="Path" fill="#FF9375" fill-rule="nonzero"></path>
                <path d="M57.8886992,155 L45.187436,148.320563 L42.4796859,140.631352 L41,138.875053 L43.0129737,138.065663 C46.6708774,140.293451 52.9576647,142.686261 53.9040628,141.70792 C49.9532264,139.165805 46.8436326,136.749421 47.3919426,136.179704 C48.4247183,135.346739 52.6497098,137.507733 57.907477,140.631352 C60.5063161,142.383722 61.3888699,145.892391 63,149.129954 L57.8886992,155 Z" id="Path" fill="#FF9375" fill-rule="nonzero"></path>
                <path d="M44.7337407,79.9816593 C33.0369562,88.0945783 33.5173869,115.116139 41.7263204,128.966538 L37.7656045,129.649572 L36.5210243,126.727707 L36.5210243,129.634393 L30.1241088,131.505146 L29.1821621,128.010291 L28.5579805,131.505146 L15,135 L15,123.035532 C15,111.678204 21.3439546,107.811476 21.3439546,100.446099 C19.8610505,80.497729 28.9324895,69 38.9874873,69 C54.0208061,69 56.2678597,81.1883516 58.5413939,93.3349623 C58.9499491,98.3059277 67,102.005692 67,111.803427 C67,115.575289 65.9180853,119.46099 64.3784374,121.836428 C60.9738106,119.130857 57.7129347,117.874835 54.0737669,115.575289 C50.7031864,115.047835 48.9441292,111.974185 49.0878801,108.684241 C58.397643,97.2434313 52.4962898,85.810211 44.7337407,79.9816593 Z" id="Path" fill="#061432" fill-rule="nonzero"></path>
                <path d="M19.1855359,208 C19.1264833,207.998755 19.0712328,207.96621 19.0358052,207.911802 C19.0069915,207.86722 18.9948303,207.811239 19.0020221,207.756289 C19.0092139,207.701339 19.0351635,207.65197 19.0741084,207.619143 C22.4169353,204.764722 24.5549517,200.354801 25.6378884,194.172894 C25.6462818,194.117098 25.6740288,194.067634 25.7147494,194.035875 C25.75547,194.004116 25.8056601,193.992795 25.8537793,194.004515 C25.9523128,194.028624 26.0158522,194.139247 25.9965458,194.253074 C24.8961986,200.547234 22.7059506,205.029317 19.2934814,207.955901 C19.2627176,207.983923 19.2247606,207.99943 19.1855359,208 L19.1855359,208 Z" id="Path" fill="#061432" fill-rule="nonzero"></path>
                <path d="M68.7724853,207 C68.7213129,206.99913 68.6719073,206.981927 68.6321083,206.951115 C63.6423457,203.138585 60.7539835,198.515485 60.0010526,193.236597 C59.9894241,193.120974 60.0754264,193.017268 60.1956714,193.001916 C60.3159164,192.986564 60.4272911,193.065071 60.4477065,193.179572 C61.1836221,198.34441 64.0336996,202.861606 68.9171161,206.621184 C69.0126246,206.695845 69.0277847,206.830122 68.9511469,206.922602 C68.9063009,206.972205 68.8410009,207.000491 68.7724853,207 L68.7724853,207 Z" id="Path" fill="#061432" fill-rule="nonzero"></path>
                <path d="M43.8970396,223 C43.843179,222.999794 43.7960239,222.937671 43.7817967,222.848177 C42.8959077,216.75877 42.7611941,210.416965 43.3863553,204.232292 C43.3798992,204.144602 43.4065834,204.059569 43.4527075,204.020852 C43.4988316,203.982134 43.5541473,203.998335 43.5902538,204.061135 C43.6263603,204.123936 43.6352352,204.219383 43.6123218,204.298472 C42.991051,210.427998 43.1219083,216.713751 43.9964648,222.750854 C44.0122012,222.860381 43.9739488,222.971372 43.9105976,223 L43.8970396,223 Z" id="Path" fill="#061432" fill-rule="nonzero"></path>
                <path d="M23.9733294,175 C23.9212459,175 23.8713422,174.980187 23.8345775,174.945248 C23.7964452,174.909587 23.7749822,174.860948 23.7749822,174.810194 C23.7749822,174.759441 23.7964452,174.710802 23.8345775,174.67514 C28.3555784,170.152653 31.978546,164.316126 35.5706798,155.763916 L30.4098781,149.471125 L20.3503619,159.779038 C20.2821137,159.84515 20.1740093,159.856286 20.0923481,159.805617 C20.0106869,159.754948 19.9782978,159.656639 20.0150447,159.570982 C22.0963239,155.154348 23.0984213,150.993221 22.9558151,147.200756 C22.9537317,147.149439 22.9732794,147.099443 23.0101506,147.061785 C23.0470218,147.024128 23.0981904,147.0019 23.1523804,147 C23.2629581,147 23.3543652,147.081596 23.3605083,147.186156 C23.4838434,150.741364 22.639769,154.606831 20.8552648,158.691305 L30.2749804,149.025812 C30.3152201,148.983808 30.3731854,148.961046 30.4330035,148.96376 C30.4922379,148.968229 30.5467721,148.996039 30.5833181,149.040412 L35.9561018,155.610612 C36.00043,155.664539 36.012098,155.736365 35.9869356,155.800417 C32.3601138,164.45483 28.6986041,170.357059 24.1197898,174.934298 C24.0829132,174.974749 24.0297392,174.998602 23.9733294,175 Z" id="Path" fill="#061432" fill-rule="nonzero"></path>
                <path d="M63.8595214,173 C63.795036,173 63.7344748,172.969625 63.6967569,172.918326 C60.0175226,167.965913 58.1249123,161.948026 58,155.031725 C58.000259,154.982291 58.0191318,154.934694 58.0529931,154.898076 L63.8405953,148.586905 C63.8846387,148.539617 63.9493935,148.516312 64.0141692,148.524438 C64.0789449,148.532564 64.1356345,148.571104 64.1661243,148.627742 L66.0587346,152.22511 C64.77933,147.770165 63.628623,143.155586 63.6437639,140.19676 C63.6427472,140.14492 63.6630351,140.094859 63.7000589,140.057849 C63.7370827,140.020838 63.7877299,140 63.8405953,140 L63.8405953,140 C63.9499119,140.002023 64.0374463,140.089526 64.0374268,140.19676 C64.0374268,143.537968 65.517448,149.036112 66.9861136,153.988525 C67.012484,154.054842 67.0007784,154.129919 66.955406,154.185476 C66.9100336,154.241032 66.8378877,154.268628 66.766145,154.257868 C66.6944022,154.247108 66.633962,154.199627 66.6075916,154.133311 L63.9162997,149.062099 L58.3747368,155.098549 C58.5034343,161.899764 60.3922594,167.817415 63.9920041,172.684441 C64.0231345,172.726776 64.0358382,172.779508 64.0273193,172.831031 C64.0188005,172.882554 63.9897572,172.928646 63.9465815,172.959163 C63.9217438,172.980071 63.891707,172.99416 63.8595214,173 Z" id="Path" fill="#061432" fill-rule="nonzero"></path>
                <path d="M42.9089855,103.999409 C42.147449,104.01391 41.4306975,103.760782 41.0225406,103.333193 C40.9734845,103.270038 41.0069796,103.192413 41.0989378,103.156142 C41.1908961,103.119871 41.3094501,103.137523 41.3693416,103.196404 C41.7128233,103.552796 42.3190419,103.758145 42.9547175,103.733429 C43.6423368,103.735516 44.2767409,103.487753 44.6086914,103.087479 C44.6360106,103.038629 44.7033922,103.004702 44.7815361,103.000449 C44.8596801,102.996197 44.9344662,103.022388 44.9733746,103.067634 C45.012283,103.11288 45.0082831,103.169004 44.9631143,103.211602 C44.5668655,103.698831 43.7994043,104.001596 42.9661505,103.999409 L42.9089855,103.999409 Z" id="Path" fill="#061432" fill-rule="nonzero"></path>
                <path d="M40.9492744,106 L40.7597356,106 C39.0461503,105.967274 37.6652248,105.496017 37.0347182,104.740044 C36.9722768,104.660232 36.9962849,104.552868 37.0888722,104.49787 C37.1820023,104.445383 37.307675,104.465774 37.3712463,104.543687 C37.9089175,105.19821 39.2086121,105.623649 40.7674719,105.653103 C42.8137172,105.689102 44.7284457,105.070578 45.6335902,104.069158 C45.6659006,104.032099 45.7145837,104.007701 45.7685235,104.001534 C45.8224634,103.995367 45.8770546,104.007958 45.9198324,104.036432 C46.0091634,104.094463 46.026435,104.202596 45.9585138,104.278605 C45.0069517,105.332387 43.0535418,106 40.9492744,106 Z" id="Path" fill="#061432" fill-rule="nonzero"></path>
                <path d="M47.2489183,96 C46.4814447,95.9693403 45.7360541,95.7030502 45.0934732,95.2299692 C45.0019798,95.1677613 44.9726378,95.0338938 45.027936,94.9309679 C45.0832342,94.828042 45.2022323,94.7950336 45.2937257,94.8572416 C46.9904105,96.0122877 48.4249467,95.7583414 49.6628713,94.079019 C49.6949021,94.0344841 49.74153,94.0063422 49.7922272,94.0009472 C49.8429243,93.9955523 49.893416,94.0133593 49.9323019,94.0503476 C50.0115761,94.129107 50.0227377,94.2636384 49.9577886,94.3575407 C49.1531376,95.4511483 48.2428989,96 47.2489183,96 Z" id="Path" fill="#061432" fill-rule="nonzero"></path>
                <path d="M44.2041146,93 C44.1403539,92.9994891 44.0804826,92.9821622 44.0415201,92.9529448 C43.9735434,92.9009017 43.9908291,92.8268643 44.0802331,92.7871311 C45.6713367,92.0902654 47.6224711,91.8549892 49.8871806,92.085784 C49.9682606,92.1094454 50.0128277,92.1611391 49.9967417,92.2128648 C49.9806557,92.2645905 49.9077429,92.3040447 49.8174972,92.3098565 C47.6805405,92.085784 45.8378025,92.3098565 44.3396101,92.9663891 C44.3036361,92.9872979 44.2550831,92.9993419 44.2041146,93 L44.2041146,93 Z" id="Path" fill="#061432" fill-rule="nonzero"></path>
                <path d="M36.3160054,96 C35.5038773,95.9814969 34.7219074,95.8045774 34.0815894,95.4944667 C34.0400791,95.4768368 34.0117313,95.4496162 34.0029082,95.4189144 C33.9940852,95.3882126 34.0055261,95.3566012 34.034663,95.331175 C34.0637837,95.3053059 34.1083393,95.2876941 34.1584708,95.2822367 C34.2086024,95.2767792 34.2601768,95.283926 34.3017822,95.3020957 C35.8756197,95.9955263 37.3050684,95.9082882 38.6767616,95.0336709 C38.7510644,94.9887764 38.869578,94.9887764 38.9438808,95.0336709 C38.9798109,95.0559084 39,95.0860855 39,95.1175536 C39,95.1490218 38.9798109,95.1791989 38.9438808,95.2014364 C38.1088325,95.7338121 37.232874,96 36.3160054,96 Z" id="Path" fill="#061432" fill-rule="nonzero"></path>
                <path d="M33.1945949,93.9992489 C33.1034602,93.9970866 33.0255439,93.9420237 33.0051085,93.8653403 C32.9846732,93.7886569 33.0268872,93.7097473 33.1077697,93.6734385 C35.1349487,92.8686867 37.0753024,92.783976 38.8722059,93.4258225 C38.93964,93.4491027 38.9875613,93.501664 38.9979185,93.5637072 C39.0082757,93.6257503 38.9794952,93.6878494 38.9224184,93.7266124 C38.8653415,93.7653754 38.7886397,93.7749132 38.7212056,93.751633 C37.0300024,93.1488837 35.1991238,93.2303363 33.2776451,93.9927327 C33.2506224,93.9991095 33.2225069,94.0013154 33.1945949,93.9992489 Z" id="Path" fill="#061432" fill-rule="nonzero"></path>
                <path d="M53.8347635,146 L53.7843355,146 C48.6678362,144.729028 45.1572737,142.882521 43.0509362,140.34857 C43.0149995,140.306906 42.9968123,140.252114 43.0004593,140.196501 C43.0041063,140.140888 43.0292817,140.089115 43.0703315,140.05281 C43.1114165,140.015556 43.1652221,139.996719 43.2198299,140.00047 C43.2744377,140.004221 43.3253402,140.03025 43.3612621,140.072794 C45.4094135,142.538799 48.8501527,144.341341 53.8813124,145.588333 C53.9618327,145.627032 54.0091142,145.714648 53.9985282,145.805542 C53.9879421,145.896435 53.9218841,145.970037 53.8347635,145.98801 L53.8347635,146 Z" id="Path" fill="#061432" fill-rule="nonzero"></path>
                <path d="M40.1809179,146 C40.0843438,145.995427 40.006862,145.92816 40.0004287,145.843305 C39.9939953,145.75845 40.0606368,145.682733 40.155666,145.666928 L45.7904593,145.000785 C45.8928602,144.992113 45.9847066,145.056246 45.9983029,145.145913 C46.0118992,145.23558 45.9423706,145.318633 45.8409632,145.333857 L40.2061699,146 L40.1809179,146 Z" id="Path" fill="#061432" fill-rule="nonzero"></path>
                <path d="M40.2136141,148 C40.1097904,147.999681 40.0212663,147.946681 40.0036367,147.874286 C39.9931163,147.834806 40.0056413,147.793994 40.0383557,147.761158 C40.07107,147.728321 40.1211846,147.706258 40.1772719,147.7 L45.8062822,147 C45.901048,147.006393 45.9784547,147.056307 45.9962239,147.122479 C46.0139932,147.188652 45.9678532,147.255175 45.8830047,147.285714 L40.2499564,147.985714 L40.2136141,148 Z" id="Path" fill="#061432" fill-rule="nonzero"></path>
                <path d="M54.7686341,147.999737 L54.7058216,147.999737 L46.8375042,145.935631 C46.3312626,145.76545 45.9987226,145.346395 46,144.880244 C46.0316168,144.087232 46.5643951,143.371878 47.3902546,143.013575 C47.4967213,142.977168 47.6180144,143.016253 47.6701431,143.103766 C47.7222718,143.191279 47.6880845,143.298426 47.5912547,143.351011 C46.9170676,143.641242 46.4771476,144.219954 46.4396915,144.865885 C46.436403,145.180369 46.6570527,145.464809 46.9966293,145.583835 L54.8440092,147.637172 C54.8996696,147.651285 54.9464536,147.683864 54.9739722,147.727675 C55.0014908,147.771486 55.0074663,147.822902 54.9905718,147.870506 C54.9587762,147.951378 54.8680509,148.004206 54.7686341,147.999737 L54.7686341,147.999737 Z" id="Path" fill="#061432" fill-rule="nonzero"></path>
                <rect id="Rectangle" fill="#061432" fill-rule="nonzero" x="42" y="129" width="4" height="2" rx="1"></rect>
            </g>
        </g>
    </g>
</svg>