<?xml version="1.0" encoding="UTF-8"?>
<svg width="276px" height="337px" viewBox="0 0 276 337" version="1.1" xmlns="http://www.w3.org/2000/svg" xmlns:xlink="http://www.w3.org/1999/xlink">
    <title>ILUSTRATION 2</title>
    <g id="Page-1" stroke="none" stroke-width="1" fill="none" fill-rule="evenodd">
        <g id="Artboard-Copy-5" transform="translate(-74.000000, -60.000000)" fill-rule="nonzero">
            <g id="ILUSTRATION-2" transform="translate(74.000000, 60.000000)">
                <g id="Group-3" transform="translate(3.000000, 63.000000)">
                    <polygon id="Path" fill="#FFA04B" points="113.478546 145.195312 110.790274 179.648438 116.975839 179.648438 126.382979 145.195312"></polygon>
                    <polygon id="Path" fill="#FFA04B" points="194.119776 179.648438 199.422492 179.648438 197.909378 142.734375 186.291793 143.730688"></polygon>
                    <polygon id="Path" fill="#FFA04B" points="185.471125 161.601562 180.482998 161.601562 176.443769 145.360419 185.471125 143.554688"></polygon>
                    <path d="M106.829139,145.490632 C123.75167,155.287904 183.873701,152.270751 203.830287,145.490632 C222.488026,135.940835 221.103951,98.6637411 224.042553,67.3667124 L177.055598,45.7618636 C159.372848,41.2327442 117.438107,43.7956291 108.850706,50.2842029 C92.3133981,84.3509101 76.0079052,117.848087 106.829139,145.490632 Z" id="Path" fill="#ACB6C7"></path>
                    <path d="M110.122523,145.195312 C110.080801,145.196473 110.040627,145.179114 110.012495,145.14771 C109.955308,145.088289 109.955308,144.993191 110.012495,144.93377 C115.200506,139.948637 118.581382,134.705418 120.348507,128.895089 C120.359231,128.856736 120.38489,128.824518 120.419525,128.805918 C120.45416,128.787318 120.494757,128.783955 120.531888,128.796609 C120.610971,128.821112 120.655698,128.906147 120.631914,128.986778 C118.848118,134.844649 115.440568,140.13541 110.215881,145.154502 C110.190066,145.178265 110.157221,145.192602 110.122523,145.195312 L110.122523,145.195312 Z" id="Path" fill="#061432"></path>
                    <path d="M201.728753,145.181446 C201.682958,145.180716 201.639827,145.159138 201.610957,145.122514 C197.013548,138.854922 194.149423,133.037986 192.860399,127.338914 C192.843492,127.254978 192.894036,127.172293 192.974829,127.151718 C193.055517,127.134479 193.134779,127.186852 193.153206,127.269582 C194.438865,132.923588 197.286162,138.709325 201.856646,144.949185 C201.889115,144.996411 201.893534,145.05827 201.868126,145.109883 C201.842719,145.161496 201.79166,145.194381 201.735485,145.195312 L201.728753,145.181446 Z" id="Path" fill="#061432"></path>
                    <path d="M113.865767,129.609375 C105.79605,123.013256 102.436258,112.623515 99.1869621,102.578959 C97.6710845,97.8967396 96.2415326,93.4708464 94.3768997,89.5439343 L94.6565946,89.4140625 C96.5281336,93.3614807 97.9611386,97.7942093 99.4908282,102.483264 C102.726312,112.490225 106.072292,122.835537 114.072948,129.373555 L113.865767,129.609375 Z" id="Path" fill="#061432"></path>
                    <path d="M198.777553,129.609375 L198.601824,129.356402 C206.871432,123.814933 212.10885,106.32563 217.180876,89.4140625 L217.477204,89.5029448 C212.387949,106.465791 207.11952,124.006371 198.777553,129.609375 Z" id="Path" fill="#061432"></path>
                    <path d="M146.990432,129.609375 L146.679156,129.609375 C131.857643,129.582464 121.958391,127.554023 117.261891,123.584602 C115.147952,121.801727 114.077301,119.608454 114.077301,117.058606 C114.005468,113.519766 114.822994,111.003557 116.516197,109.55371 C118.2094,108.103862 120.258347,108.208144 121.33584,108.372975 L121.287951,108.669 C120.261768,108.500804 118.305177,108.426798 116.714593,109.779092 C115.124008,111.131386 114.320164,113.607228 114.385156,117.055242 C114.385156,119.517628 115.411339,121.633531 117.463707,123.35922 C122.112319,127.278181 131.943158,129.283075 146.689418,129.309987 L147.000693,129.309987 C159.178073,129.309987 174.724756,127.934145 191.988586,125.323746 L192.036474,125.619771 C174.7487,128.236897 159.184914,129.609375 146.990432,129.609375 Z" id="Path" fill="#061432"></path>
                    <path d="M195.35533,123.867188 L195.091973,123.683574 C197.758925,120.422725 198.801225,116.617835 198.014864,112.972757 C197.273013,109.46029 194.847163,106.430659 191.215805,104.438107 L191.386431,104.179688 C195.095683,106.219843 197.569754,109.317479 198.341278,112.914953 C199.142476,116.638237 198.08163,120.528133 195.35533,123.867188 Z" id="Path" fill="#061432"></path>
                    <rect id="Rectangle" fill="#061432" x="118.99696" y="115.623047" width="34.4680851" height="1"></rect>
                    <rect id="Rectangle" fill="#061432" x="160.851064" y="115.623047" width="32.006079" height="1"></rect>
                    <rect id="Rectangle" fill="#061432" x="123.100304" y="53.2792969" width="43.4954407" height="1"></rect>
                    <polygon id="Path" fill="#1A3A7E" points="49.7262047 129.609375 34.4680851 131.494641 35.7503917 197.310005 61.4197777 205.898438 77.9635258 205.172036 75.8241335 135.701013"></polygon>
                    <polygon id="Path" fill="#FFC14E" points="19.92955 133.710938 18.4650456 135.09198 10.5519423 135.09198 8.20668693 200.698272 43.5220681 210 57.4468085 205.203585 55.5419286 138.179016"></polygon>
                    <rect id="Rectangle" fill="#000000" x="43.4544073" y="143.554688" width="1" height="61.5234375"></rect>
                    <path d="M19.7670106,155.859375 C19.5122258,155.85809 19.2576829,155.843124 19.0044343,155.81454 L18.9673178,155.81454 C17.0878708,155.124767 15.8225339,153.952153 15.2151722,152.365675 C14.1320439,149.547952 15.022841,145.443803 18.0157844,139.453125 L18.285723,139.59108 C15.3332703,145.498985 14.4458474,149.52381 15.4952335,152.251862 C16.0688528,153.74867 17.266705,154.845409 19.0550478,155.517937 C23.8464566,156.042165 27.8280499,151.293078 30.8986006,141.398285 L31.1854103,141.491404 C28.2262092,151.027515 24.3897079,155.855926 19.7670106,155.859375 Z" id="Path" fill="#000000"></path>
                    <polygon id="Path" fill="#FF9375" points="236.501816 129.715549 240.455927 136.102896 235.631981 141.09375 228.610921 138.243282 228.759936 135.247417 227.325228 131.115423 227.325228 124.6875 233.143767 126.543854"></polygon>
                    <polygon id="Path" fill="#FF9375" points="242.03782 65.3740639 234.65015 62.34375 228.966565 71.8690596 236.882633 76.0519873 242.03782 77.9296875 245.379939 70.1350086"></polygon>
                    <path d="M229.092689,135.351562 L220.759878,145.19489 L254.080911,161.601562 C257.825229,155.751698 256.953824,147.18993 245.033275,144.481409 L240.58094,136.207063 C236.23753,137.965404 232.374074,137.809858 229.092689,135.351562 Z" id="Path" fill="#061432"></path>
                    <path d="M235.531915,75.6740135 L242.339027,89.4140625 L270,64.1235033 C264.641502,56.9624642 254.504637,59.4464821 249.290314,67.2726976 L240.890413,64.8475755 C243.207509,70.8514849 239.874324,76.7722474 235.531915,75.6740135 Z" id="Path" fill="#061432"></path>
                    <path d="M152.644377,81.9822328 C167.987212,62.1889662 177.996634,37.1736462 187.797034,35.4251006 C197.573836,33.474411 217.623021,50.7678302 237.173252,62.7448622 L229.082106,74.7353704 L197.836798,62.7448622 C198.204271,69.910867 198.079532,77.0937171 190.861556,84.4921875 L152.644377,81.9822328 Z" id="Path" fill="#1F57C7"></path>
                    <path d="M147.720365,109.35161 C159.610879,110.237243 173.26812,109.35161 189.968625,107.641894 C202.199549,106.205733 214.941088,83.8118765 218.866013,86.2294146 C221.381642,88.7597938 217.007376,114.610696 228.159201,132.070312 L237.173252,130.654668 C233.513847,101.510854 237.135807,74.2340491 226.753308,70.1717645 C213.232231,63.3123851 196.330884,75.1949093 163.777495,79.6025564 L152.669923,87.3612464 L147.720365,109.35161 Z" id="Path" fill="#2961EB"></path>
                    <polygon id="Path" fill="#2961EB" points="66.3284708 18.8671875 56.8894514 18.8671875 24.6200608 26.1544616 33.291903 83.671875 86.9908815 70.7890154"></polygon>
                    <path d="M36.9300912,24.609375 C38.8018332,19.6552685 41.438133,14.9611482 44.7620219,10.6640625 L47.5987842,11.3901434 C46.4560986,14.2293479 45.9772589,18.3123322 45.8430387,23.0302303 L44.098176,23.6325845 L45.4476332,11.9892416 C42.5455746,16.0494342 40.2783413,20.2235856 39.09938,24.6028631 L36.9300912,24.609375 Z" id="Path" fill="#2961EB"></path>
                    <path d="M50.0723363,12.7813378 C50.1840568,16.4704745 49.9050325,20.1611373 49.2401216,23.7890625 L50.9595734,23.7890625 C51.6714265,20.5833041 51.7849103,16.4892029 51.582015,11.9316187 L52.6136861,11.9316187 C53.8069856,14.4913097 54.6770282,17.8059164 55.3097865,21.7420119 L56.6234477,21.6015625 C56.6784702,17.3880794 55.8944001,13.6591468 53.8723248,10.6640625 L50.1411143,10.983585 L50.0723363,12.7813378 Z" id="Path" fill="#2961EB"></path>
                    <polygon id="Path" fill="#FF1600" points="5.23802577 54.9609375 16.836033 56.503004 41.0334347 57.9174274 40.2865806 106.480448 13.9691851 108.28125 0 103.527407"></polygon>
                    <path d="M22.4079776,41.015625 C17.8751821,41.015625 17.5394194,51.4390685 13.9513678,58.6510758 L15.6663906,59.8828125 C18.1187746,55.5837425 18.1813186,47.8536509 20.0806817,45.8705205 L23.0235424,59.8828125 L24.6200608,59.8828125 L22.4079776,41.015625 Z" id="Path" fill="#FF1600"></path>
                    <polygon id="Path" fill="#FF1600" points="21.337386 60.4166813 27.7813705 45.9375 29.2676766 45.9375 34.4680851 60.4166813 31.7448533 60.4166813 27.9043981 48.8747957 23.20275 61.5234375"></polygon>
                    <path d="M42.0235911,37.5805119 L32.5149855,34.6258544 C28.4510709,33.6674007 23.9916746,36.7461745 21.724474,42.6554895 C20.5550757,46.7478798 22.1199556,49.1681477 25.2769899,50.6161712 C27.9430816,51.7366656 32.8320527,49.0026593 32.8320527,42.0555941 L39.2449917,45.865275 L42.674772,45.865275 L42.0235911,37.5805119 Z" id="Path" fill="#FF9375"></path>
                    <path d="M69.7568389,9.07339517 C64.4471682,4.97763007 58.7650079,-0.479942459 55.612391,0.0337519863 C52.7713108,0.723274731 50.7124589,2.38157693 49.683033,5.29825814 C46.2764458,4.63976392 44.4851092,6.28082806 43.5030911,9.09063324 C43.327005,11.8176957 46.2121067,13.0622843 49.9370032,13.9172925 C52.2058038,13.9172925 55.2399013,11.7004768 57.7558996,9.29404245 C60.0247002,9.29404245 63.3432444,12.9140369 67.4677207,15.5859375 L69.7568389,9.07339517 Z" id="Path" fill="#FF9375"></path>
                    <path d="M116.534954,56.6885395 C110.073416,38.0515852 86.8346729,14.0527547 70.41318,8.203125 C66.3587462,9.48560941 64.196842,11.8766242 64.9980589,15.9662487 L101.860943,59.0625 L116.534954,56.6885395 Z" id="Path" fill="#EEA843"></path>
                    <path d="M97.1154492,42.65625 C98.6421807,46.3537213 100.775515,49.9671591 105.045593,53.372194 L95.5614546,61.5234375 L88.2754009,59.3419294 L82.887538,45.8965794 L97.1154492,42.65625 Z" id="Path" fill="#F27553"></path>
                    <path d="M96.9673595,27.5344707 C102.983523,33.3441173 103.862835,41.6388151 101.04417,44.3555805 C96.6406586,48.6103911 86.1723259,50.3465687 81.0250481,45.3630337 C75.0123604,39.5533871 73.7055566,28.9650542 78.1090683,24.7102436 C86.5094535,16.6002456 90.9546718,21.7248241 96.9673595,27.5344707 Z" id="Path" fill="#FF9375"></path>
                    <path d="M89.6902357,20.8844932 C85.3352228,21.1680845 82.1828634,23.8790821 81.5765116,27.572521 C80.9701598,31.2659599 82.8696154,36.6710747 81.4324612,41.1545179 C80.3001578,44.6825285 85.3854729,46.3739479 86.082275,52.6332127 L94.3768997,80.9349476 C90.6918887,87.8457971 90.2429874,96.9612312 90.5277382,108.28125 L82.8227153,106.616839 L81.8847125,102.879511 L80.360458,105.006446 L75.7776443,105.006446 L77.2985489,98.9564985 L73.5800378,103.892337 L69.5131257,100.317061 L72.5649848,95.705327 L67.8180206,99.8038963 L61.550152,96.7316573 C63.0744065,89.5574731 71.2651809,80.8640498 71.2651809,69.4292441 L69.3389252,50.5231585 C68.266922,45.3509936 64.7628115,34.2774292 68.8297236,27.0390993 C74.2165397,17.9675543 84.0890191,17.3159696 89.6902357,20.8844932 Z" id="Path" fill="#061432"></path>
                    <ellipse id="Oval" fill="#FF9375" transform="translate(80.258957, 44.267546) rotate(-64.960000) translate(-80.258957, -44.267546) " cx="80.2589572" cy="44.267546" rx="2.9678154" ry="4.99433868"></ellipse>
                    <path d="M42.062359,36.9140625 C38.8058037,38.6552775 36.1221294,46.4563339 38.9251539,49.284948 C49.4245611,59.2642437 69.9937146,70.3756733 95.401666,82.0342436 L108.359687,101.032758 C113.311015,108.104293 131.377225,110.66794 147.574751,109.738833 C157.139817,99.2640138 166.357062,85.8951987 163.656337,79.800946 C153.491111,79.1402479 141.201451,76.545631 135.012291,70.3102917 C132.577547,63.9820418 129.215281,58.8994833 124.028663,56.3151898 C118.988675,53.9236 115.360429,56.8072723 105.188382,52.3578829 C103.176479,55.4239355 97.6863698,56.3427189 95.4528161,56.7453318 C79.6099303,51.6903024 57.7074646,36.9140625 42.062359,36.9140625 Z" id="Path" fill="#FFBF46"></path>
                    <path d="M85.4597008,32.8125 C85.3963795,32.7998815 85.3495441,32.7277642 85.3495441,32.6428806 C85.3495441,32.557997 85.3963795,32.4858797 85.4597008,32.4732612 C87.2539307,32.3207944 88.208553,31.4098048 88.3781998,29.6793059 C88.3838498,29.6193877 88.4131844,29.5680166 88.4551537,29.5445438 C88.4971229,29.521071 88.5453506,29.5290625 88.5816699,29.565508 C88.6179891,29.6019535 88.6368822,29.661316 88.6312322,29.7212343 C88.4472086,31.6270701 87.3861976,32.6524098 85.4683269,32.8125 L85.4597008,32.8125 Z" id="Path" fill="#061432"></path>
                    <path d="M92.3013587,27.068053 C92.2228383,27.0710657 92.1439313,27.0710657 92.0654109,27.068053 C92.0184695,27.064807 91.9762868,27.0527299 91.9484288,27.0345605 C91.9205707,27.0163911 91.9093977,26.9936688 91.9174436,26.9715466 C91.9243036,26.9493351 91.9498271,26.9293754 91.9882261,26.9161936 C92.026625,26.9030119 92.0746458,26.8977251 92.1213985,26.9015322 C92.6695068,26.9211496 93.2128461,26.841315 93.6410624,26.678243 C93.8753832,26.5931437 94.0151847,26.4622352 94.0209784,26.3224942 C94.0342174,26.2808224 94.1098812,26.25 94.1989391,26.25 C94.2879969,26.25 94.3636607,26.2808224 94.3768997,26.3224942 C94.370994,26.5110267 94.1859071,26.6882689 93.8730111,26.8050259 C93.4258424,26.9732368 92.8725976,27.0658262 92.3013587,27.068053 Z" id="Path" fill="#061432"></path>
                    <path d="M83.8269751,31.9896216 C83.8137623,31.9930428 83.8001917,31.9930428 83.7869789,31.9896216 C83.7251928,31.9574864 83.6933372,31.8646637 83.7149857,31.7798435 C84.0749517,30.485006 84.9575351,28.1629789 86.8346912,27.0779196 C86.8942199,27.0523836 86.9582378,27.0930379 86.9819046,27.1714068 C87.0055715,27.2497758 86.9809776,27.3396678 86.9253493,27.3781193 C85.1335184,28.401692 84.2855985,30.6513817 83.9389645,31.8992 C83.9170329,31.9553702 83.8738317,31.9902514 83.8269751,31.9896216 L83.8269751,31.9896216 Z" id="Path" fill="#061432"></path>
                    <path d="M91.1725539,25.4296875 C91.1396622,25.4291071 91.1104127,25.3946505 91.0990774,25.3431304 C91.0877421,25.2916103 91.0966833,25.233763 91.121538,25.1978144 C91.3186453,24.8963667 91.5624015,24.6930179 91.8252052,24.610794 C91.8679539,24.6002574 91.907728,24.6495358 91.9140431,24.7208603 C91.9203583,24.7921848 91.8908231,24.8585464 91.8480744,24.869083 C91.6135019,24.9405257 91.3954544,25.1193789 91.2182923,25.385661 C91.2067108,25.4090268 91.1904748,25.4246552 91.1725539,25.4296875 Z" id="Path" fill="#061432"></path>
                    <path d="M96.2669743,34.4499814 C96.2430173,34.4541729 96.2181799,34.4541729 96.194223,34.4499814 C96.1143173,34.41811 96.0818899,34.3416886 96.1214717,34.2785289 C96.5543419,33.5955767 96.6416435,33.052644 96.3833764,32.6211553 C96.0632706,32.0867952 95.2048052,31.7067423 93.6806652,31.4238458 C93.5935933,31.4069326 93.5400644,31.3381229 93.5606256,31.2695386 C93.5701435,31.2368914 93.5958492,31.2085766 93.6320419,31.1908739 C93.6682345,31.1731712 93.7119224,31.1675438 93.7534165,31.1752398 C95.3830459,31.4781391 96.2997124,31.9039126 96.6634689,32.5154263 C96.9653868,33.021211 96.8780853,33.6355823 96.3979266,34.3928306 C96.3685844,34.4273745 96.3198118,34.4486601 96.2669743,34.4499814 L96.2669743,34.4499814 Z" id="Path" fill="#061432"></path>
                    <path d="M95.0263843,40.1953125 C94.8563544,40.1947055 94.6864751,40.1853606 94.5174513,40.1673166 C94.4310855,40.1563812 94.3692095,40.0804735 94.3776739,39.9958416 C94.3870904,39.9101042 94.4653753,39.8477056 94.5532916,39.855862 C96.5854396,40.0763299 98.8541338,38.8480091 99.8182393,37.0002787 C99.8582136,36.9234062 99.9540641,36.8922097 100.033281,36.9302889 C100.112011,36.9693202 100.143961,37.0629097 100.104962,37.1402583 C99.0944243,38.9730116 97.1573516,40.1382713 95.0263843,40.1953125 Z" id="Path" fill="#061432"></path>
                    <ellipse id="Oval" fill="#061432" cx="25.4407295" cy="63.1640625" rx="1.64133739" ry="1.640625"></ellipse>
                    <ellipse id="Oval" fill="#061432" cx="33.6474164" cy="63.1640625" rx="1.64133739" ry="1.640625"></ellipse>
                    <path d="M13.2604657,95.1555893 L13.2604657,95.1555893 C13.2224815,95.15311 13.1871554,95.1345081 13.1627904,95.1041558 C13.1384255,95.0738036 13.1271706,95.0343777 13.1316711,94.9951451 L16.1261465,62.4784671 C16.1293723,62.4387518 16.1479867,62.4020962 16.1777282,62.376892 C16.2074698,62.3516879 16.2457914,62.3400936 16.2839199,62.3447637 C16.3628066,62.3535458 16.4202192,62.4265569 16.4127145,62.5085504 L13.4150193,95.0218858 C13.4117546,95.0609562 13.393594,95.0970548 13.3645728,95.122161 C13.3355515,95.1472671 13.2980734,95.1593012 13.2604657,95.1555893 L13.2604657,95.1555893 Z" id="Path" fill="#000000"></path>
                </g>
            </g>
        </g>
    </g>
</svg>